<?xml version="1.0" encoding="iso-8859-1"?>
<!-- Generator: Adobe Illustrator 19.0.0, SVG Export Plug-In . SVG Version: 6.00 Build 0)  -->
<svg xmlns="http://www.w3.org/2000/svg" xmlns:xlink="http://www.w3.org/1999/xlink" version="1.1" id="Capa_1" x="0px" y="0px" viewBox="0 0 384 384" style="enable-background:new 0 0 384 384;" xml:space="preserve" width="512px" height="512px">
<g>
	<g>
		<path d="M324.28,123.488h-11.648L203.784,5.056c-6.064-6.592-17.504-6.592-23.56,0L71.368,123.488H59.72    C23.44,123.488,0,143.4,0,174.224c0,19.512,9.432,34.632,25.544,43.112L47.48,370.16c1.128,7.88,7.872,13.728,15.832,13.728    h257.376c7.96,0,14.704-5.848,15.832-13.728l21.936-152.824c16.112-8.48,25.544-23.6,25.544-43.112    C384,143.4,360.56,123.488,324.28,123.488z M192,39.536l77.16,83.96H114.84L192,39.536z M306.824,351.888H77.176L58.96,224.92    c0.256,0,0.504,0.024,0.768,0.024H324.28c0.264,0,0.504-0.024,0.768-0.024L306.824,351.888z M329.568,192.72H54.424    C43.224,191.8,32,187.576,32,174.224c0-15.488,15.072-18.736,27.72-18.736h264.552c12.648,0,27.72,3.248,27.72,18.736    C351.992,187.576,340.768,191.8,329.568,192.72z" fill="#d7d7d7"/>
	</g>
</g>
<g>
	<g>
		<path d="M262.728,250.296c-8.832,0-16,7.168-16,16v44.016c0,8.832,7.168,16,16,16c8.832,0,16-7.168,16-16v-44.016    C278.728,257.456,271.56,250.296,262.728,250.296z" fill="#d7d7d7"/>
	</g>
</g>
<g>
	<g>
		<path d="M121.272,250.296c-8.832,0-16,7.168-16,16v44.016c0,8.832,7.168,16,16,16c8.832,0,16-7.168,16-16v-44.016    C137.272,257.456,130.112,250.296,121.272,250.296z" fill="#d7d7d7"/>
	</g>
</g>
<g>
	<g>
		<path d="M192,250.296c-8.832,0-16,7.168-16,16v44.016c0,8.832,7.168,16,16,16c8.832,0,16-7.168,16-16v-44.016    C208,257.456,200.832,250.296,192,250.296z" fill="#d7d7d7"/>
	</g>
</g>
<g>
</g>
<g>
</g>
<g>
</g>
<g>
</g>
<g>
</g>
<g>
</g>
<g>
</g>
<g>
</g>
<g>
</g>
<g>
</g>
<g>
</g>
<g>
</g>
<g>
</g>
<g>
</g>
<g>
</g>
</svg>
